<svg width="1680" height="384" viewBox="0 0 1680 384" fill="none" xmlns="http://www.w3.org/2000/svg" font-family="'SF Pro Display','Segoe UI',Inter,system-ui,-apple-system,sans-serif">
  <defs>
    <linearGradient id="surface" x1="0" y1="0" x2="0" y2="1">
      <stop offset="0" stop-color="#11121f"/>
      <stop offset="1" stop-color="#070810"/>
    </linearGradient>
    <radialGradient id="glow" cx="0.5" cy="0" r="0.9">
      <stop offset="0" stop-color="#5865f2" stop-opacity="0.6"/>
      <stop offset="0.45" stop-color="#4752c4" stop-opacity="0.2"/>
      <stop offset="1" stop-color="#4752c4" stop-opacity="0"/>
    </radialGradient>
    <linearGradient id="tile" x1="0" y1="0" x2="1" y2="1">
      <stop offset="0" stop-color="#7c87ff"/>
      <stop offset="1" stop-color="#4752c4"/>
    </linearGradient>
    <linearGradient id="accent" x1="0" y1="0" x2="1" y2="0">
      <stop offset="0" stop-color="#7c87ff"/>
      <stop offset="1" stop-color="#4752c4"/>
    </linearGradient>
    <pattern id="dots" width="14" height="14" patternUnits="userSpaceOnUse">
      <circle cx="2" cy="2" r="1.4" fill="#272a45"/>
    </pattern>
    <linearGradient id="dotfadegrad" x1="0" y1="0" x2="1" y2="0">
      <stop offset="0" stop-color="#fff"/>
      <stop offset="0.5" stop-color="#fff"/>
      <stop offset="0.6" stop-color="#000"/>
    </linearGradient>
    <mask id="dotfade"><rect x="40" y="320" width="1600" height="40" fill="url(#dotfadegrad)"/></mask>
    <clipPath id="round"><rect x="8" y="8" width="1664" height="368" rx="28"/></clipPath>
  </defs>

  <g clip-path="url(#round)">
    <rect x="8" y="8" width="1664" height="368" fill="url(#surface)"/>
    <rect x="8" y="8" width="1664" height="368" fill="url(#glow)"/>

    <rect x="8" y="300" width="1664" height="76" fill="#08090f"/>
    <rect x="8" y="300" width="1664" height="1" fill="#20223a"/>
    <rect x="40" y="320" width="1600" height="40" fill="url(#dots)" mask="url(#dotfade)"/>

    <rect x="1300" y="298" width="372" height="3" fill="url(#accent)"/>

    <!-- Discord watermark -->
    <g transform="translate(1412,64) scale(7.2)" opacity="0.07">
      <path fill="#ffffff" d="M20.317 4.3698a19.7913 19.7913 0 00-4.8851-1.5152.0741.0741 0 00-.0785.0371c-.211.3753-.4447.8648-.6083 1.2495-1.8447-.2762-3.68-.2762-5.4868 0-.1636-.3933-.4058-.8742-.6177-1.2495a.077.077 0 00-.0785-.037 19.7363 19.7363 0 00-4.8852 1.515.0699.0699 0 00-.0321.0277C.5334 9.0458-.319 13.5799.0992 18.0578a.0824.0824 0 00.0312.0561c2.0528 1.5076 4.0413 2.4228 5.9929 3.0294a.0777.0777 0 00.0842-.0276c.4616-.6304.8731-1.2952 1.226-1.9942a.076.076 0 00-.0416-.1057c-.6528-.2476-1.2743-.5495-1.8722-.8923a.077.077 0 01-.0076-.1277c.1258-.0943.2517-.1923.3718-.2914a.0743.0743 0 01.0776-.0105c3.9278 1.7933 8.18 1.7933 12.0614 0a.0739.0739 0 01.0785.0095c.1202.099.246.1981.3728.2924a.077.077 0 01-.0066.1276 12.2986 12.2986 0 01-1.873.8914.0766.0766 0 00-.0407.1067c.3604.698.7719 1.3628 1.225 1.9932a.076.076 0 00.0842.0286c1.961-.6067 3.9495-1.5219 6.0023-3.0294a.077.077 0 00.0313-.0552c.5004-5.177-.8382-9.6739-3.5485-13.6604a.061.061 0 00-.0312-.0286zM8.02 15.3312c-1.1825 0-2.1569-1.0857-2.1569-2.419 0-1.3332.9555-2.4189 2.157-2.4189 1.2108 0 2.1757 1.0952 2.1568 2.419 0 1.3332-.9555 2.4189-2.1569 2.4189zm7.9748 0c-1.1825 0-2.1569-1.0857-2.1569-2.419 0-1.3332.9554-2.4189 2.1569-2.4189 1.2108 0 2.1757 1.0952 2.1568 2.419 0 1.3332-.946 2.4189-2.1568 2.4189Z"/>
    </g>

    <!-- Icon tile: Discord glyph (bot) -->
    <g transform="translate(108,86)">
      <rect width="128" height="128" rx="30" fill="url(#tile)"/>
      <rect width="128" height="128" rx="30" fill="#ffffff" opacity="0.06"/>
      <g transform="translate(26,30) scale(3.17)">
        <path fill="#ffffff" d="M20.317 4.3698a19.7913 19.7913 0 00-4.8851-1.5152.0741.0741 0 00-.0785.0371c-.211.3753-.4447.8648-.6083 1.2495-1.8447-.2762-3.68-.2762-5.4868 0-.1636-.3933-.4058-.8742-.6177-1.2495a.077.077 0 00-.0785-.037 19.7363 19.7363 0 00-4.8852 1.515.0699.0699 0 00-.0321.0277C.5334 9.0458-.319 13.5799.0992 18.0578a.0824.0824 0 00.0312.0561c2.0528 1.5076 4.0413 2.4228 5.9929 3.0294a.0777.0777 0 00.0842-.0276c.4616-.6304.8731-1.2952 1.226-1.9942a.076.076 0 00-.0416-.1057c-.6528-.2476-1.2743-.5495-1.8722-.8923a.077.077 0 01-.0076-.1277c.1258-.0943.2517-.1923.3718-.2914a.0743.0743 0 01.0776-.0105c3.9278 1.7933 8.18 1.7933 12.0614 0a.0739.0739 0 01.0785.0095c.1202.099.246.1981.3728.2924a.077.077 0 01-.0066.1276 12.2986 12.2986 0 01-1.873.8914.0766.0766 0 00-.0407.1067c.3604.698.7719 1.3628 1.225 1.9932a.076.076 0 00.0842.0286c1.961-.6067 3.9495-1.5219 6.0023-3.0294a.077.077 0 00.0313-.0552c.5004-5.177-.8382-9.6739-3.5485-13.6604a.061.061 0 00-.0312-.0286zM8.02 15.3312c-1.1825 0-2.1569-1.0857-2.1569-2.419 0-1.3332.9555-2.4189 2.157-2.4189 1.2108 0 2.1757 1.0952 2.1568 2.419 0 1.3332-.9555 2.4189-2.1569 2.4189zm7.9748 0c-1.1825 0-2.1569-1.0857-2.1569-2.419 0-1.3332.9554-2.4189 2.1569-2.4189 1.2108 0 2.1757 1.0952 2.1568 2.419 0 1.3332-.946 2.4189-2.1568 2.4189Z"/>
      </g>
    </g>

    <!-- Title -->
    <g transform="translate(288,0)">
      <text x="0" y="158" font-size="76" font-weight="800" fill="#f1f2fb" letter-spacing="-1.5">Laracord</text>
      <text x="2" y="214" font-size="34" font-weight="600" fill="#9aa3ff" letter-spacing="0.5">Discord Bots &#183; Laravel</text>
    </g>

    <!-- Footer: Laravel mark + handle -->
    <g transform="translate(1333,326)">
      <path transform="scale(1.16)" fill="#9a9fc4" d="M23.642 5.43a.364.364 0 01.014.1v5.149c0 .135-.073.26-.189.326l-4.323 2.49v4.934a.378.378 0 01-.188.326L9.93 23.949a.316.316 0 01-.066.027c-.008.002-.016.008-.024.01a.348.348 0 01-.192 0c-.011-.002-.02-.008-.03-.012-.02-.008-.042-.014-.062-.025L.533 18.755a.376.376 0 01-.189-.326V2.974c0-.033.005-.066.014-.098.003-.012.01-.02.014-.032a.369.369 0 01.023-.058c.004-.013.015-.022.023-.033l.033-.045c.012-.01.025-.018.037-.027.014-.012.027-.024.041-.034H.53L5.043.05a.375.375 0 01.375 0L9.93 2.647h.002c.015.01.027.021.04.033l.038.027c.013.014.02.03.033.045.008.011.02.021.025.033.01.02.017.038.024.058.003.011.01.021.013.032.01.031.014.064.014.098v9.652l3.76-2.164V5.527c0-.033.004-.066.013-.098.003-.01.01-.02.013-.032a.487.487 0 01.024-.059c.007-.012.018-.02.025-.033.012-.015.021-.03.033-.043.012-.012.025-.02.037-.028.014-.01.026-.023.041-.032h.001l4.513-2.598a.375.375 0 01.375 0l4.513 2.598c.016.01.027.021.042.031.012.01.025.018.036.028.013.014.022.03.034.044.008.012.019.021.024.033.011.02.018.04.024.06.006.01.012.021.015.032zm-.74 5.032V6.179l-1.578.908-2.182 1.256v4.283zm-4.51 7.75v-4.287l-2.147 1.225-6.126 3.498v4.325zM1.093 3.624v14.588l8.273 4.761v-4.325l-4.322-2.445-.002-.003H5.04c-.014-.01-.025-.021-.04-.031-.011-.01-.024-.018-.035-.027l-.001-.002c-.013-.012-.021-.025-.031-.04-.01-.011-.021-.022-.028-.036h-.002c-.008-.014-.013-.031-.02-.047-.006-.016-.014-.027-.018-.043a.49.49 0 01-.008-.057c-.002-.014-.006-.027-.006-.041V5.789l-2.18-1.257zM5.23.81L1.47 2.974l3.76 2.164 3.758-2.164zm1.956 13.505l2.182-1.256V3.624l-1.58.91-2.182 1.255v9.435zm11.581-10.95l-3.76 2.163 3.76 2.163 3.759-2.164zm-.376 4.978L16.21 7.087 14.63 6.18v4.283l2.182 1.256 1.58.908zm-8.65 9.654l5.514-3.148 2.756-1.572-3.757-2.163-4.323 2.489-3.941 2.27z"/>
      <text x="41" y="22" font-size="20" font-weight="600" fill="#9a9fc4" letter-spacing="0.2">github.com/kyzegs/laracord</text>
    </g>
  </g>

  <rect x="8.5" y="8.5" width="1663" height="367" rx="27.5" fill="none" stroke="#ffffff" stroke-opacity="0.07"/>
</svg>
